<svg viewBox="0 0 750 107.51" xmlns="http://www.w3.org/2000/svg"><path d="m83.09 26.57v-5.8l-41.55-20.77h-.06l-2.81 1.44-38.67 19.33v16c0 1.23.1 2.53.2 3.82.06.64.12 1.28.19 1.92s.17 1.47.27 2.2q.24 1.77.57 3.51c.12.63.25 1.26.39 1.88.38 1.74.85 3.46 1.38 5.15l.3 1c.46 1.46 1 2.91 1.51 4.34.15.41.31.81.47 1.21.27.66.55 1.31.83 2s.55 1.2.89 1.88c.77 1.61 1.6 3.19 2.47 4.75.29.51.59 1 .9 1.54 1 1.58 2 3.13 3.05 4.64a72 72 0 0 0 11.21 12.45l1.5 1.31 7.71 6.75 7.7 6.74 4.23-3.7-4.23-2.1v-10.53l11.89 5.92 4.23-3.69-16.12-8v-10.57l23.25 11.59q1.77-2 3.39-4.11l-26.64-13.28v-10.53l31.92 15.91c.86-1.5 1.68-3 2.43-4.59l-34.35-17.12v-10.53l37.9 18.89q.82-2.51 1.47-5.07l-39.37-19.62v-10.54l41.11 20.5c.2-1.86.34-3.73.4-5.61l-41.51-20.69v-10.53z" fill="#ff0030"/><g fill="#fff"><path d="m187.83 17.84v68.16a1.25 1.25 0 0 1 -1.25 1.25h-9.1a1.25 1.25 0 0 1 -1.26-1.25v-44.63a1.25 1.25 0 0 0 -2.32-.64l-18.82 31.09a1.24 1.24 0 0 1 -2.14 0l-18.82-31.18a1.25 1.25 0 0 0 -2.33.64v44.72a1.25 1.25 0 0 1 -1.25 1.25h-9.1a1.25 1.25 0 0 1 -1.26-1.25v-68.16a1.25 1.25 0 0 1 1.25-1.25h10.57a1.26 1.26 0 0 1 1.07.6l19.87 33a1.25 1.25 0 0 0 1.72.42 1.21 1.21 0 0 0 .42-.42l20-33a1.26 1.26 0 0 1 1.07-.6h10.46a1.25 1.25 0 0 1 1.22 1.25z"/><path d="m242.5 36.78h8.4a1.25 1.25 0 0 1 1.25 1.22v48a1.25 1.25 0 0 1 -1.25 1.25h-8.4a1.25 1.25 0 0 1 -1.25-1.25v-2.56a1.25 1.25 0 0 0 -1.25-1.25 1.26 1.26 0 0 0 -.91.39q-5.9 6-15.51 6a23.68 23.68 0 0 1 -17.77-7.72 26.23 26.23 0 0 1 -7.37-18.86 26.2 26.2 0 0 1 7.37-18.89 23.78 23.78 0 0 1 17.77-7.67q9.63 0 15.51 5.94a1.25 1.25 0 0 0 1.78 0 1.27 1.27 0 0 0 .38-.89v-2.49a1.25 1.25 0 0 1 1.25-1.22zm-28.62 36.81a16.49 16.49 0 0 0 22.83 0 15.77 15.77 0 0 0 4.54-11.59 15.78 15.78 0 0 0 -4.54-11.56 16.45 16.45 0 0 0 -22.83 0 15.78 15.78 0 0 0 -4.54 11.56 15.77 15.77 0 0 0 4.54 11.59z"/><path d="m293.45 35.47a23.68 23.68 0 0 1 17.77 7.72 26.25 26.25 0 0 1 7.37 18.81 26.18 26.18 0 0 1 -7.37 18.88 23.78 23.78 0 0 1 -17.77 7.67q-9.63 0-15.51-5.93a1.25 1.25 0 0 0 -1.77-.05 1.23 1.23 0 0 0 -.39.91v22.7a1.25 1.25 0 0 1 -1.25 1.25h-8.4a1.25 1.25 0 0 1 -1.25-1.25v-68.18a1.25 1.25 0 0 1 1.24-1.26h8.41a1.25 1.25 0 0 1 1.25 1.26v2.57a1.25 1.25 0 0 0 1.22 1.25 1.26 1.26 0 0 0 .91-.39q5.91-5.95 15.54-5.96zm-13.13 38.12a16.48 16.48 0 0 0 22.82 0 15.78 15.78 0 0 0 4.55-11.59 15.75 15.75 0 0 0 -4.55-11.56 16.46 16.46 0 0 0 -22.82 0 15.78 15.78 0 0 0 -4.54 11.56 15.77 15.77 0 0 0 4.54 11.59z"/><path d="m375 86.43-4.37-12.56a1.25 1.25 0 0 0 -1.23-.87h-28.31a1.25 1.25 0 0 0 -1.18.84l-4.37 12.56a1.25 1.25 0 0 1 -1.18.84h-9.94a1.26 1.26 0 0 1 -1.26-1.24 1.32 1.32 0 0 1 .08-.44l24.76-68.15a1.26 1.26 0 0 1 1.18-.82h12.17a1.25 1.25 0 0 1 1.18.83l24.64 68.17a1.25 1.25 0 0 1 -.74 1.6 1.26 1.26 0 0 1 -.43.08h-9.84a1.25 1.25 0 0 1 -1.16-.84zm-29.14-24.3h18.87a1.26 1.26 0 0 0 1.27-1.26 1.14 1.14 0 0 0 -.07-.41l-9.44-26.87a1.26 1.26 0 0 0 -2.37 0l-9.44 26.87a1.25 1.25 0 0 0 .78 1.6 1.15 1.15 0 0 0 .36.07z"/><path d="m429.3 36.78h8.4a1.25 1.25 0 0 1 1.3 1.22v48a1.25 1.25 0 0 1 -1.25 1.25h-8.4a1.25 1.25 0 0 1 -1.3-1.2v-1.65a1.25 1.25 0 0 0 -2.16-.87q-4.89 5-13.49 5t-14-5.53q-5.4-5.51-5.4-15.2v-29.8a1.25 1.25 0 0 1 1.24-1.26h8.41a1.25 1.25 0 0 1 1.26 1.26v28.67q0 5.65 3 8.68a11.2 11.2 0 0 0 8.28 3 12.46 12.46 0 0 0 9.29-3.58q3.54-3.58 3.54-11v-25.77a1.25 1.25 0 0 1 1.28-1.22z"/><path d="m478.59 47.28h-10a1.27 1.27 0 0 0 -1.25 1.26v23c0 2.08.47 3.58 1.41 4.49a6.43 6.43 0 0 0 4.19 1.52q2.32.12 5.61 0a1.26 1.26 0 0 1 1.31 1.21v7.41a1.26 1.26 0 0 1 -1.12 1.25q-11.65 1.22-16.86-2.3-5.44-3.69-5.45-13.58v-23a1.27 1.27 0 0 0 -1.25-1.26h-6.79a1.25 1.25 0 0 1 -1.26-1.28v-8a1.25 1.25 0 0 1 1.24-1.26h6.8a1.25 1.25 0 0 0 1.25-1.25v-8.68a1.25 1.25 0 0 1 .9-1.2l8.4-2.49a1.26 1.26 0 0 1 1.56.86 1.33 1.33 0 0 1 .05.34v11.21a1.25 1.25 0 0 0 1.25 1.25h10a1.26 1.26 0 0 1 1.27 1.22v8a1.25 1.25 0 0 1 -1.24 1.28z"/><path d="m516.3 35.47q8.67 0 14 5.55t5.35 15.25v29.73a1.25 1.25 0 0 1 -1.25 1.25h-8.4a1.25 1.25 0 0 1 -1.22-1.25v-28.62c0-3.77-1-6.67-3-8.68a11.2 11.2 0 0 0 -8.28-3 12.46 12.46 0 0 0 -9.29 3.58q-3.54 3.59-3.53 11v25.72a1.27 1.27 0 0 1 -1.26 1.25h-8.42a1.25 1.25 0 0 1 -1.26-1.25v-68.16a1.25 1.25 0 0 1 1.26-1.25h8.41a1.27 1.27 0 0 1 1.26 1.25v21.8a1.25 1.25 0 0 0 2.15.86q4.88-5 13.49-5z"/><path d="m571.23 88.58a25.92 25.92 0 0 1 -18.89-7.67 25.51 25.51 0 0 1 -7.77-18.91 25.52 25.52 0 0 1 7.77-18.89 27.16 27.16 0 0 1 37.82 0 25.59 25.59 0 0 1 7.72 18.89 25.56 25.56 0 0 1 -7.72 18.88 25.84 25.84 0 0 1 -18.93 7.7zm-11.23-15.14a16.1 16.1 0 0 0 22.41 0 15.47 15.47 0 0 0 4.59-11.44 15.46 15.46 0 0 0 -4.55-11.41 16.07 16.07 0 0 0 -22.41 0 15.48 15.48 0 0 0 -4.57 11.41 15.51 15.51 0 0 0 4.53 11.44z"/><path d="m620.91 41.52q4.14-5.22 12-5.61a1.25 1.25 0 0 1 1.32 1.18v9.31a1.25 1.25 0 0 1 -1.23 1.25 15.81 15.81 0 0 0 -9.65 3q-4.65 3.35-4.65 11.15v24.2a1.25 1.25 0 0 1 -1.25 1.25h-8.45a1.25 1.25 0 0 1 -1.22-1.25v-48a1.25 1.25 0 0 1 1.22-1.22h8.4a1.25 1.25 0 0 1 1.28 1.22v2.7a1.25 1.25 0 0 0 2.23.82z"/><path d="m652.66 27.14a7 7 0 0 1 -11.86-4.9 6.79 6.79 0 0 1 2-4.89 7 7 0 0 1 9.9 0 6.88 6.88 0 0 1 0 9.73l-.06.06zm-10.35 58.86v-48a1.25 1.25 0 0 1 1.24-1.26h8.45a1.24 1.24 0 0 1 1.21 1.26v48a1.25 1.25 0 0 1 -1.21 1.27h-8.4a1.25 1.25 0 0 1 -1.29-1.21z"/><path d="m692.75 47.28h-10a1.27 1.27 0 0 0 -1.25 1.26v23c0 2.08.47 3.58 1.41 4.49a6.43 6.43 0 0 0 4.19 1.52q2.32.12 5.61 0a1.26 1.26 0 0 1 1.29 1.23v7.37a1.26 1.26 0 0 1 -1.12 1.25q-11.64 1.21-16.88-2.3-5.44-3.69-5.45-13.58v-23a1.27 1.27 0 0 0 -1.25-1.26h-6.79a1.25 1.25 0 0 1 -1.22-1.26v-8a1.25 1.25 0 0 1 1.24-1.26h6.8a1.25 1.25 0 0 0 1.25-1.25v-8.68a1.26 1.26 0 0 1 .9-1.2l8.4-2.49a1.26 1.26 0 0 1 1.56.86 1.33 1.33 0 0 1 0 .34v11.21a1.25 1.25 0 0 0 1.25 1.25h10a1.26 1.26 0 0 1 1.31 1.22v8a1.25 1.25 0 0 1 -1.24 1.28z"/><path d="m739.82 36.78h8.93a1.25 1.25 0 0 1 1.25 1.22 1.32 1.32 0 0 1 -.08.44l-18.76 50.44q-7 18.89-23.38 18.63a1.28 1.28 0 0 1 -1.26-1.26v-7.7a1.27 1.27 0 0 1 1.26-1.25 11.09 11.09 0 0 0 7-2.21 17.67 17.67 0 0 0 5.14-7.67v-.1l.22-.44a1.24 1.24 0 0 0 0-1l-20.42-47.3a1.25 1.25 0 0 1 .56-1.68 1.27 1.27 0 0 1 .72-.12h9.17a1.25 1.25 0 0 1 1.16.78l13.43 32.84a1.26 1.26 0 0 0 1.65.68 1.27 1.27 0 0 0 .7-.74l11.53-32.72a1.26 1.26 0 0 1 1.18-.84z"/></g></svg>